# xmcd
#
# Track frame offsets:
#	151
#	23775
#	53788
#	81859
#	105340
#	126762
#	146875
#	169852
#	211247
#	240994
#
# Disc length: 3644 seconds
#
# Revision: 1
# Processed by: cddbd v1.4PL0 Copyright (c) Steve Scherf et al.
# Submitted via: CDmax 2.0
#
DISCID=7f0e3a0a
DTITLE=Eric Clapton - Must Change (disc2)
DYEAR=2003
DGENRE=Blues
TTITLE0=Bright Lights, Big City
TTITLE1=Kind Hearted Woman
TTITLE2=Badge
TTITLE3=Holy Mother
TTITLE4=Lay Down Sally
TTITLE5=Wonderful Tonight
TTITLE6=Cocaine
TTITLE7=Layla
TTITLE8=Sunshine of Your Love
TTITLE9=Band Intro~Somewhere Over the Rainbow
EXTD=Eric Clapton\t\tguitar, vocals\nAndy Fairweather Low\tguitar, vocals\nNa
EXTD=than East\t\tbass, vocals\nSteve Gadd\t\tdrums\nChris Stainton\t\tkeyboa
EXTD=rds\n\nRecorded live at Budokan, Tokyo, Japan on December 2, 2003
EXTT0=
EXTT1=
EXTT2=
EXTT3=
EXTT4=
EXTT5=
EXTT6=
EXTT7=
EXTT8=Encore
EXTT9=Encore
PLAYORDER=
